<svg xmlns="http://www.w3.org/2000/svg" width="672" height="259" viewBox="0 0 672 259">
    <g fill="none" fill-rule="evenodd">
        <g transform="translate(-868 -218) translate(868 218)">
            <path fill="#FFCE3E" d="M382.803 73.571L243.206 130.304 243.206 258.167 478.603 258.167 478.603 73.571z"/>
            <path fill="#FFBC2E" d="M484.594 85.411L484.594 103.497 340.616 103.497 385.118 85.411zM484.594 113.058L484.594 131.144 272.588 131.144 317.09 113.058zM255.047 140.699H484.6V158.78500000000003H255.047zM255.047 168.346H484.6V186.43200000000002H255.047zM255.047 195.993H484.6V214.079H255.047zM255.047 223.64H484.6V241.726H255.047z"/>
            <path fill="#FFC418" d="M382.803 73.571L333.636 73.571 194.039 130.304 194.039 258.167 243.206 258.167 243.206 130.304z"/>
            <path fill="#FFB009" d="M194.039 130.304H243.206V258.16700000000003H194.039z"/>
            <path fill="#FFF" d="M54.093 18.768c-.352.18-.675.411-.959.687.338-.202.659-.432.96-.687zM456.154.38h4.8c1.19.005 2.342.424 3.257 1.184l7.992 6.524c.311.258.703.398 1.107.397h44.768c7.785 0 13.895 3.055 15.92 7.104.092.202.076.437-.044.624s-.326.3-.548.3h-70.409c-.703-.006-1.337-.426-1.616-1.072l-5.754-14.273c-.062-.176-.037-.371.066-.526.104-.155.274-.252.46-.262z"/>
            <path fill="#4BA4FF" d="M453.626 8.686H464.37699999999995V9.87H453.626zM481.498 12.706l-12.8 8.708h7.324c.226 0 .451-.042.663-.124l25.504-9.016h-19.537c-.424.001-.833.155-1.154.432zM510.033 9.633l2.64 2.64h18.436c-1.588-1.178-3.37-2.071-5.263-2.64h-15.813z"/>
            <path fill="#E89F81" d="M366.96 203.932c-1.094 20.59 8.159 33.378 9.805 45.283v3.801l8.412 3.238v-5.192c-7.59-28.588-2.534-34.603-3.138-50.392-.603-15.789-15.078 3.262-15.078 3.262z"/>
            <path fill="#D78867" d="M382.057 200.647c-.592-15.79-15.096 3.285-15.096 3.285-.107 1.96-.119 3.848-.048 5.678 6.945-7.75 11.51 7.737 12.433 20.033.752 10.207 3.907 16.11 4.96 17.826-6.269-25.54-1.669-31.72-2.249-46.822z"/>
            <path fill="#0F3939" d="M385.13 242.774c-2.499 2.025-.865 9.33-3.848 9.33-1.803-.036-3.48-.928-4.517-2.403-.77.77-2.209 6.731 0 8.46H400.8c1.634 0 2.31-1.729 1.83-3.079s-9.2-3.362-13.445-5.286c-4.245-1.924-4.055-7.022-4.055-7.022z"/>
            <path fill="#E89F81" d="M338.26 202.263c-4.837 7.66-6.05 16.357-3.084 46.798l2.125 5.873 5.671-.728v-4.375c-7.743-17.168 10.953-39.724 9.13-46.65-3.849-14.576-13.842-.918-13.842-.918z"/>
            <path fill="#D78867" d="M338.26 202.263c-1.513 2.357-2.638 4.941-3.333 7.655 7.388-8.058 12.663-7.448 12.663-1.919 0 4.802-7.057 11.373-8.04 31.152-.438 8.786-1.829 11.663-3.362 12.705l.444 1.22 3.688 1.473 2.652-.343v-4.375c-7.743-17.168 10.953-39.724 9.13-46.65-.376-1.614-1.025-3.152-1.919-4.547l-3.552-2.173c-4.05-.1-8.371 5.802-8.371 5.802z"/>
            <path fill="#0F3939" d="M343.535 242.774c-2.498 2.025-.865 9.33-3.842 9.33-1.803-.034-3.482-.927-4.517-2.403-.77.77-2.215 6.731 0 8.46h24.035c1.634 0 2.31-1.729 1.824-3.079s-9.194-3.362-13.445-5.286c-4.25-1.924-4.055-7.022-4.055-7.022z"/>
            <path fill="#E89F81" d="M281.403 200.072c-2.427 6.074 3.197 24.865 5.417 32.993 2.818 10.313 3.238 16.944 2.96 18.465-.278 1.522-.592 3.197 5.766 3.8 6.358.605 4.553.226 2.025-2.93-4.05-5.061-2.493-37.172-1.723-48.201 1.066-15.185-9.869-10.805-9.869-10.805l-4.576 6.678z"/>
            <path fill="#FFF" d="M289.756 251.53c-1.823 3.6-2.433 6.637 5.565 6.637h10.728c1.314 0 2.527-2.132-.504-2.735-3.03-.604-6.985-2.226-7.998-3.032.302 3.34-5.772 2.718-7.79-.87z"/>
            <path fill="#D78867" d="M281.403 200.072c-.36.999-.559 2.048-.592 3.108 5.831-1.947 12.432.658 11.959 13.102-.474 12.444-2.48 30.346 4.736 36.113-4.05-5.062-2.493-37.173-1.723-48.202.243-3.44-.136-5.867-.858-7.572l-10.657-.787-2.865 4.238z"/>
            <path fill="#E89F81" d="M269.196 192.554c-6.365 4.546-8.567 9.614-13.244 26.143-3.155 11.13-8.33 20.72-11.514 24.794 0 0-2.807 1.87-1.86 6.784.232 1.677 1.317 3.114 2.866 3.795 1.545.793 3.034 1.689 4.458 2.682-.409-.84-.758-3.191-1.723-5.222.953-7.353 11.627-20.371 15.641-26.558 7.98-12.308 15.002-19.72 15.002-29.535 0-14.883-9.626-2.883-9.626-2.883z"/>
            <path fill="#D78867" d="M260.724 203.867c3.451-2.7 9.904-2.765 11.574-.083s-6.193 17.76-14.878 28.287c-8.684 10.526-10.626 20.65-13.32 16.209l-1.302 2.83c.401 1.329 1.37 2.412 2.646 2.96 1.545.793 3.034 1.689 4.458 2.682-.409-.84-.758-3.191-1.723-5.222.953-7.353 11.627-20.371 15.641-26.558 7.98-12.308 15.002-19.72 15.002-29.535.007-.989-.044-1.977-.154-2.96l-11.485 1.646c-2.718 2.391-4.606 5.197-6.46 9.744z"/>
            <path fill="#FFF" d="M244.438 243.49c-3.493 2.126-4.506 3.038-2.783 6.986 1.723 3.95 2.96 7.697 4.855 7.697h5.671c.634 0 1.13-2.049-.355-2.593-1.758-.737-3.095-2.22-3.647-4.044 1.12 9.111-6.323-2.842-3.741-8.045z"/>
            <path fill="#E89F81" d="M444.195 225.41c-1 7.892 5.879 14.866 7.323 22.1 1.445 7.235-.669 8.1-.669 8.987 0 .888.67 1.67 4.778 1.67s5.458-.705 3.285-2.919c-2.172-2.214-2.729-5.216-2.51-10.656.22-5.44.48-11.544-3.422-19.306-3.9-7.761-8.785.125-8.785.125z"/>
            <path fill="#D78867" d="M458.983 255.33l-.077-.082c-2.178-2.22-2.729-5.216-2.51-10.656.22-5.44.48-11.544-3.421-19.306-.406-.853-.946-1.637-1.599-2.32l-3.132 3.037c5.772-.26 7.697 9.146 7.49 12.592-.208 3.445-1.919 9.916-.593 12.953.84 1.977 2.7 3.02 3.842 3.783z"/>
            <path fill="#6D2005" d="M321.571 120.186c-1.101 13.208-6.767 17.003-6.767 17.003 9.473 5.464 12.983-2.735 12.983-2.735l7.833-36.433c3.723-3.209 9.762-3.949 12.142 3.155.456-2.403 1.326-3.16 9.946-6.162l-1.107-1.93c-25.64-11.616-33.532 9.057-35.03 27.102z"/>
            <path fill="#E02D20" d="M338.905 94.066c8.259-3.03 12.006 1.457 13.972 6.258 1.965 4.801-6.27 59.675-6.27 59.675-13.616 0-21.673 4.677-20.063-15.7 1.61-20.377 1.237-46.148 12.361-50.233z"/>
            <path fill="#C6130E" d="M352.966 108.624l-6.104-5.127c-3.369 17.447-5.707 46.041-12.172 50.321-3.949 2.605-6.832 1.084-8.128-1.018 1.338 10.408 8.791 7.223 20.045 7.223 0-.024 5.222-34.793 6.359-51.399z"/>
            <path fill="#081910" d="M385.799 102.094c1.22 1.593.911 6.252.911 6.252l-5.162-2.433s2.735-4.707 4.25-3.819zM384.064 120.186c1.634.592 2.646-3.949 2.646-3.949l-6.376-2.835s2.197 6.074 3.73 6.784z"/>
            <path fill="#FFF" d="M334.69 203.784c7.732-2.486 14.925-3.617 20.241 0 3.848-14.883 4.505-28.849 5.009-23.846.84 8.288 1.249 9.78 4.102 23.846 7.187 2.143 13.877 3.12 18.826 0 4.25-37.09 2.647-49.297-4.576-62.043-10.319-18.216-31.66-3.866-31.66-3.866 1.313 16.991-9.408 29.714-11.942 65.91z"/>
            <path fill="#DCF4ED" d="M360.662 186.119c-.148-1.285-.302-2.487-.456-3.665.148 1.344.296 2.522.456 3.665zM382.868 203.784c4.097-35.77 2.753-48.39-3.824-60.675l-33.425 7.418c10.176 3.966 32.945-1.344 34.467 7.46 1.521 8.802 1.054 38.385-5.832 47.769 3.227.13 6.128-.409 8.614-1.972z"/>
            <path fill="#DCF4ED" d="M358.679 167.287c-5.465 24.864-10.106 29.944-16.364 34.573 4.736-.775 9.105-.467 12.616 1.924 3.392-13.13 4.304-25.54 4.82-24.864-.421-3.304-.806-6.814-1.072-11.633z"/>
            <path fill="#BF6D51" d="M433.45 151.26c-6.346 3.991-8.04 14.34-6.068 22.497 1.971 8.158 6.068-22.496 6.068-22.496z"/>
            <path fill="#FFF" d="M427.21 161.272c.622 1.397 2.463 2.19 2.463 2.19l5.263-13.29c-3.878 1.314-7.092 5.476-7.726 11.1zM441.549 152.581c13.178 3.99 17.86 4.245 19.17 16.902 1.307 12.657 3.664 26.919-3.008 27.7-6.672.782-13.617-1.314-18.945-4.315-5.328-3.002-7.193-30.347-3.552-34.136 3.641-3.789 3.375-7.045 6.335-6.151z"/>
            <path fill="#E89F81" d="M419.135 225.523c-2.001 5.328-3.895 23.509-4.612 26.73-.716 3.22-7.477 2.551-7.59 4.546-.112 1.995 7.105 1.22 9.87 1.22 2.764 0 2.368-2.522 2.664-4.328 1.35-8.347 6.186-14.913 8.483-21.626 2.297-6.714-.468-7.542-.468-7.542l-8.347 1z"/>
            <path fill="#D78867" d="M419.81 247.806c-2.735 5.163 0 5.518-.716 8.632.178-.907.303-1.825.373-2.747 1.35-8.347 6.186-14.913 8.483-21.626 1.273-3.724.971-5.642.462-6.607l-4.82 1.705c4.11 2.735-1.053 15.487-3.782 20.643z"/>
            <path fill="#007272" d="M234.746 140.551c-.491-.56-1.201-.882-1.947-.882h-11.521c-1.996.002-3.686 1.474-3.96 3.452l-11.521 65.814h1.776l11.473-65.56c.15-1.118 1.103-1.955 2.232-1.96h11.52c.244.001.475.107.634.29.154.171.228.4.201.628l-11.65 66.602h1.776l11.639-66.347c.087-.741-.15-1.484-.652-2.037z"/>
            <path fill="#DCF4ED" d="M457.018 174.894l-7.163 5.044-4.144 15.931c3.863 1.276 7.951 1.726 12 1.32 2.628-.308 3.854-2.711 4.298-6.287-3.777-1.8-2.605-5.506-4.991-16.008z"/>
            <path fill="#E89F81" d="M440.418 137.189c-2.44 4.144.112 12.07 2.072 14.421 1.96 2.35-5.612 9.614-5.612 9.614l-7.892-1.373 2.842-10.266c.992-2.05 1.44-4.321 1.302-6.595-.124-2.758 7.288-5.801 7.288-5.801z"/>
            <path fill="#C6130E" d="M424.676 181.27c-1.498 5.66-6.4 25.995-7.43 44.14 7.726 2.777 12.83 1.996 14.084-.443 1.599-3.09 2.173-16.08 4.387-12.64 2.214 3.44.965 12.64 4.517 13.753 1.93.592 6.05.219 9.413-.255 1.275-.183 2.414-.89 3.145-1.95.73-1.06.986-2.377.703-3.633-1.728-8.016-.947-13.752-4.51-23.68-3.825-10.657-4.737-16.612-4.737-16.612l-19.572 1.32z"/>
            <path fill="#B70000" d="M434.99 211.759c-3.648-1.492-4.536 6.962-5.66 10.123-1.125 3.161-2.333 4.908-7.27 4.908 5.014.977 8.288.095 9.27-1.776 1.404-2.765 2.02-13.149 3.66-13.255zM439.175 225.405c.286.316.652.55 1.06.675 2.302.716 7.731.035 11.248-.533.817-.14 1.54-.615 1.99-1.312.45-.697.587-1.55.378-2.353-1.297-5.15-1.457-9.27-2.102-13.883.953 7.839-1.61 17.565-12.574 17.406zM423.593 192.678c8.04 6.944 23.296-1.225 26.865 8.762-.396-1.528-.876-3.138-1.503-4.89-1.107-3.079-1.966-5.755-2.635-8.016l-14.77-1.776-7.957 5.92z"/>
            <path fill="#0F3939" d="M220.349 141.57l.343-1.942c.034-.186.196-.32.385-.32h11.953c.114 0 .223.05.298.139.074.088.105.204.086.317l-.343 1.942c-.032.184-.192.32-.379.32h-11.959c-.115 0-.224-.051-.298-.14-.074-.087-.106-.203-.086-.316z"/>
            <path fill="#E89F81" d="M430.383 184.271c-.426 2.694-4.623 6.075-11.804 9.834-1.96 1.03-9.443 3.866-9.934 4.736-.912 1.563-3.304 2.913-3.718 2.552-.415-.362 1.397-1.244 1.569-1.617.171-.373-.96.314-2.286.859-.947.396-2.421.592-3.167.106-1.776-1.125-2.19-2.125 0-2.516 2.19-.39 9.72-3.848 13.616-6.755 3.896-2.906 12.125-10.537 11.84-23.87 0-.011 4.299 13.984 3.884 16.671z"/>
            <path fill="#D78867" d="M425.766 189.748l-3.706-3.63c-2.078 8.39-9.13 7.56-13.32 12.587.994-.96 7.962-3.611 9.839-4.6 2.5-1.273 4.902-2.73 7.187-4.357zM440.353 137.218c-.705.296-7.341 3.162-7.229 5.772.02.62.005 1.241-.047 1.86 4.849-1.895 6.033 2.22 7.146 6.24l2.403.727c-.038-.074-.083-.143-.136-.207-1.948-2.338-4.476-10.165-2.114-14.338l-.023-.054z"/>
            <path fill="#005B70" d="M431.798 149.585c-.361 8.502 6.66 2.688 9.757.592 1.397-.171 6.512 7.407 6.512 7.407-2.795 2.498-4.926 5.15-4.056 9.513 1.392 5.411 5.814 7.572 5.814 27.18 0 0-26.084 2.545-28.245-3.553-.343-10.39 2.883-32.495 5.074-35.822 1.497-1.593 5.144-5.317 5.144-5.317z"/>
            <path fill="#FFF" d="M426.257 154.878c.588-1.312 1.705-2.314 3.072-2.759-2.119 7.181-5.612 13.8-6.15 17.536.544-7.744 1.663-12.071 3.078-14.777z"/>
            <path fill="#E89F81" d="M271.842 88.205c7.193 15.736-.272 20.129-.272 20.129s9.685 13.148 17.275 13.024c7.59-.124-2.226-13.024-2.226-13.024-2.86-3.552-6.809-7.596-3.724-13.735 3.155-6.27-11.053-6.394-11.053-6.394z"/>
            <path fill="#E89F81" d="M271.57 108.352c-5.388 6.074-5.4 24.787-11.776 28.327-6.376 3.54-21.478-2.782-27.35-2.96-5.873-.177-10.45 6.963-10.923 8.33-.912 2.635 6.926 0 6.926 0 .154-2.634 2.99-2.717 2.99-2.717 2.534-3.44 4.979-3.345 8.626.657 3.646 4.002 11.793 8.993 22.567 5.523 11.941-3.848 14.937-14.8 17.287-28.286 2.35-13.486-8.347-8.874-8.347-8.874z"/>
            <path fill="#D78867" d="M279.313 120.488l-4.144-4.653c1.83 10.952-3.996 23.136-9.283 26.19-5.286 3.055-16.446 4.926-23.763-.118 4.227 3.434 11.438 6.512 20.501 3.582 10.964-3.529 14.386-13.019 16.69-25.001z"/>
            <path fill="#E89F81" d="M294.492 127.22c2.872-1.363 2.96 13.325 10.988 22.957 7.377 8.88 17.352 20.502 17.092 26.15-.016.205-.167.375-.37.413-.201.04-.404-.062-.495-.248-1.415-2.74-3.617-5.387-4.842-6.293-1.41-1.036-1.676 2.155.284 3.351 1.96 1.196 1.184 1.468-.184 1.237-1.367-.23-2.96-1.965-3.463-4.185-.503-2.22-.278-4.843-1.746-6.465-1.469-1.622-11.989-6.903-16.34-14.356-7.33-12.592-.924-22.562-.924-22.562z"/>
            <path fill="#D78867" d="M312.194 164.735c-.652-1.693-8.17-7.205-12.137-14.8-4.836-9.242-3.848-17.092-1.184-12.764-1.947-6.015-2.682-10.769-4.369-9.97 0 0-6.435 9.97.924 22.562 4.351 7.453 14.865 12.74 16.34 14.356.158.194.3.4.426.616z"/>
            <path fill="#2FCED4" d="M271.57 108.352c4.677 2.119 12.965 11.076 16.517 10.845 3.552-.23-1.439-10.845-1.439-10.845 9.514 9.857 12.397 13.87 9.058 19.151-3.339 5.281-2.658 11.657-1.557 14.09l1.101 2.427s13.054 21.62 15.333 29.56c2.28 7.939 3.037 14.013 1.972 20.235-5.618 5.008-19.211 10.017-32.3 6.222-13.09-3.795-29.18 4.404-29.18 4.404-4.56-16.848 8.5-36.704 13.509-43.838 5.008-7.134 8.312-15.351 11.07-27.351 4.08-17.47-5.41-24.273-4.084-24.9z"/>
            <ellipse cx="195.647" cy="255.775" fill="#007272" rx="3.446" ry="2.374" transform="rotate(-9.04 195.647 255.775)"/>
            <ellipse cx="220.282" cy="255.77" fill="#007272" rx="3.446" ry="2.374" transform="rotate(-9.04 220.282 255.77)"/>
            <path fill="#0F3939" d="M226.7 252.075l6.797-52.222c.065-.524-.099-1.051-.448-1.447-.35-.396-.853-.624-1.381-.625h-30.424c-1.7.003-3.132 1.272-3.339 2.96l-6.796 52.216c-.068.526.094 1.056.444 1.455.35.4.855.628 1.385.629h30.424c1.704 0 3.138-1.274 3.339-2.966z"/>
            <path fill="#004A56" d="M438.743 192.868c-4.565 1.308-9.893.959-14.025.307 7.453 2.795 25.137 1.072 25.137 1.072 0-9.383-1.013-14.765-2.22-18.424l-2.262-.378c4.09 6.53 2.327 14.865-6.63 17.423z"/>
            <path fill="#E89F81" d="M358.862 73.12c.592 2.736-3.037 9.722-3.037 9.722l12.432 2.58c-3.611-6.683-1.569-10.176-1.569-10.176l-7.352-8.957-.474 6.832zM406.827 94.345c-4.961 6.435-17.57 13.308-25.51 9.152l-4.937 5.328 6.02 8.099c19.49 2.244 26.694-17.6 28.251-20.176.575-.93-3.824-2.403-3.824-2.403z"/>
            <path fill="#6D2005" d="M444.094 197.1l1.35 3.109-1.184 1.29c-.238-1.454-.294-2.931-.166-4.399z"/>
            <path fill="#E89F81" d="M447.078 156.897v9.626h-3.114c1.45 3.552 3.363 7.453 4.144 10.757 1.86 8.033.888 17.044-2.196 22.437-.133.18-.286.345-.456.492l-1.184 1.29c.193 1.263.608 2.481 1.225 3.6.225-.742.663-1.402 1.261-1.895 2.487-2.492 7.253-6.512 9.514-15.487 3.013-12.107-3.209-28.115-9.194-30.82z"/>
            <path fill="#D78867" d="M456.663 185.639c1.249-7.613-.764-16.334-3.872-22.236l-4.695 4.186.148 6.411c5.867-3.51 9.123 4.665 8.419 11.639z"/>
            <path fill="#005B70" d="M446.155 154.878c4.64 2.824 6.808 6.861 8.554 12.284-4.801-.93-3.025 6.175-7.353 7.134-2.8-2.96-4.144-7.696-4.144-9.691.036-1.433 2.943-9.727 2.943-9.727z"/>
            <path fill="#D78867" d="M366.67 75.234l-4.19-5.109-3.352-.515-.236 3.51c.109.705.077 1.423-.095 2.114 2.238-.894 6.346 7.661 7.305 9.739l2.167.45c-3.64-6.684-1.598-10.189-1.598-10.189z"/>
            <path fill="#6D2005" d="M448.955 208.33c-1.481-.676-2.707-1.809-3.5-3.231.225-.742.664-1.402 1.262-1.895l2.238 5.127z"/>
            <path fill="#FFF" d="M444.45 152.676c-6.21 3.972-6.045 19.82 3.646 24.604l-.716-2.96c-5.92-5.92-4.641-17.003-1.184-19.418.55-.93-1.746-2.226-1.746-2.226z"/>
            <path fill="#E89F81" d="M357.708 67.603c5.115 14.209 14.066 9.946 16.197 2.416 1.272-4.555 1.272-9.37 0-13.924l-14.919-1.705-1.278 13.213z"/>
            <path fill="#0F3939" d="M364.812 62.802c-3.126-3.978-5.4 1.137-1.99 4.263-3.622 4.008-4.143 6.512-4.143 6.512-3.979-6.11-7.53-7.696-7.957-16.198-.426-8.501 11.082-12.213 16.34-8.24 5.257 3.972 11.792-.593 11.792-.593.853.995 0 2.7 0 2.7 3.973-.426 4.399-3.73 4.399-3.73 4.712 7.59-9.206 22.076-18.441 15.286z"/>
            <path fill="#1FB8BF" d="M251.044 204.441s16.091-8.199 29.18-4.404c13.09 3.795 26.683-1.214 32.301-6.222.645-3.877.645-7.834 0-11.71-.035 8.46-2.86 10.703-12.112 7.46-6.14-2.144-12.326 6.82-18.767 8.808-5.405 1.67-.699-14.267-3.736-19.128-3.037-4.86-10.017 9.111-17.304 13.57-7.288 4.457-5.453-16.068-.439-25.51-5.671 9.347-12.64 24.136-9.123 37.136zM300.845 153.7c-3.055-5.423-5.624-9.68-5.624-9.68l-1.102-2.427c-1.1-2.433-1.776-8.809 1.557-14.09-2.883 3.612-6.127 6.649-5.215 12.314.911 5.666 7.323 8.342 10.384 13.883z"/>
            <path fill="#D78867" d="M444.23 201.5c.193 1.262.608 2.48 1.226 3.599.224-.742.663-1.402 1.26-1.895 1.921-1.765 3.664-3.715 5.205-5.82-.09.072-5.518 5.175-7.69 4.115z"/>
            <path fill="#B70000" d="M429.33 126.544c3.06-7.276 11.763-7.134 15.427-.917 2.96 4.984.208 9.81-3.723 12.242-4.594 2.848-6.282 3.09-6.282 3.09l-5.423-14.415z"/>
            <path fill="#E89F81" d="M426.186 143.08c2.178 1.313 10.29 2.178 14.848-5.21-1.053-3.588-2.871-6.904-5.329-9.721l-5.44-2.084c-4.653 4.138-7.649 14.883-4.08 17.014z"/>
            <path fill="#FFF" d="M441.034 137.875c1.415-5.707-5.625-21.158-14.416-19.536-7.104 1.308-4.298 9.851.379 12.278 1.74-4.552 8.537-4.244 14.037 7.258z"/>
            <path fill="#D78867" d="M406.578 104.243c-14.208 17.074-25.024 7.548-24.024-.183-.424-.152-.837-.332-1.237-.54l-4.937 5.329 6.02 8.099c12.593 1.426 20.052-6.347 24.178-12.705z"/>
            <path fill="#0F3939" d="M355.825 82.842c-4.097 8.045-9.561 10.774-10.627 37.19-1.065 26.416-2.883 29.098-2.883 29.098 7.744 5.671 32.94-3.7 40.991 0 3.055-6.021-3.948-15.878-4.404-27.127-.456-11.248-2.806-29.6-10.657-36.586-7.85-6.986-12.42-2.575-12.42-2.575z"/>
            <path fill="#0F3939" d="M385.799 102.094c-3.949 4.707-4.352 13.54-1.735 18.092-8.81-5.464-17.103-16.245-17.103-16.245l2.64-17.133s11.846 7.087 16.198 15.286z"/>
            <path fill="#D78867" d="M282.895 94.617c.817-1.634.462-2.848-.51-3.76L272.05 88.68c3.825 8.608 3.215 13.752 1.936 16.576 7.341-6.962 4.943-.414 12.634 3.067-2.86-3.528-6.82-7.566-3.724-13.705z"/>
            <path fill="#E89F81" d="M273.6 90.846c6.08 4.694 9.573 4.854 12.498 3.262 2.924-1.593 2.51-13.617-.817-18.584-3.327-4.967-15.274 6.305-15.274 6.305l3.593 9.017z"/>
            <path fill="#FFF" d="M278.064 80.563c-3.522.272-6.068 3.516-2.368 4.736 3.7 1.22 4.026 4.955.403 6.204-3.624 1.25-.439 1.255.621 5.66 1.06 4.404-3.741 7.607-11.515 7.992-6.837.337-7.512-2.688-10.827-1.084-3.316 1.605-4.358 5.642-10 7.406-5.641 1.765-10.153-9.176-1.965-18.352 9.934-11.118 18.187-8.454 19.43-9.916 1.243-1.462-1.22-10.722 10.064-16.34s16.375 4.677 16.375 4.677c1.072-1.83 4.79-2.8 5.5-.835 1.237 3.552-7.974 9.26-15.718 9.852z"/>
            <path fill="#DCF4ED" d="M278.064 80.563c-6.299-1.084-7.057 3.475-4.783 4.99 2.273 1.516 5.162 2.812-.681 5.843s-7.37 4.251-1.03 4.482c6.34.23 3.498 5.162.48 6.678-3.02 1.515-7.56 3.132-14.097 1.415 2.286.947 4.76 1.352 7.229 1.184 7.773-.385 12.58-3.588 11.514-7.992-1.065-4.405-4.238-4.41-.621-5.66 3.617-1.25 3.274-4.985-.403-6.204-3.676-1.22-1.13-4.446 2.392-4.737z"/>
            <path fill="#081910" d="M378.493 115.835c-4.955-4.44-9.04-8.88-9.04-8.88 8.2 15.196 8.815 22.496 9.04 27.037.225 4.54-1.776 11.437-13.817 15.587 7.59-1.095 14.924-2.16 18.63-.455 3.055-6.015-3.948-15.872-4.404-27.12-.077-1.883-.207-3.973-.409-6.17z"/>
            <path fill="#FFA300" d="M30.129 176.303c-8.147 0-14.742 2.445-14.742 5.47.065.89.529 1.704 1.261 2.214 7.697-.65 13.836 1.836 13.842 3.552 0 2.546-11.018-.532-13.842-3.552-9.312.71-16.321 3.771-16.321 7.442 0 3.25 5.511 6.027 13.26 7.104-2.96.592-4.949 1.723-4.949 3.043 0 1.9 4.145 3.44 9.266 3.44.907 0 1.814-.05 2.717-.148-.128.245-.195.517-.196.793 0 2.504 5.47 4.535 12.22 4.535 3.895.018 7.388-.675 9.602-1.758v-29.779c-2.658-1.427-7.098-2.356-12.118-2.356zM46.628 221.095c0-3.191-6.968-5.778-15.57-5.778s-15.576 2.593-15.576 5.778c.02.634.266 1.24.693 1.71 7.85-.793 12.237 2.996 10.307 4.382-1.776 1.29-8.241-1.486-10.307-4.381-7.75.87-13.392 3.552-13.392 6.701 0 3.872 8.454 7.01 18.88 7.01 10.425 0 18.885-3.138 18.885-7.01 0-1.184-.811-2.315-2.226-3.297 4.937-.971 8.306-2.895 8.306-5.115z" opacity=".5"/>
            <path fill="#F57901" d="M15.53 251.572c-.498-3.7 1.592-5.861 3.806-8.158 1.96-2.03 3.99-4.144 4.37-7.525l.822.089c-.414 3.676-2.634 5.98-4.6 8.016-2.155 2.232-4.02 4.144-3.552 7.471l-.846.107zM33.39 215.411l-.822-.1c.923-7.158-.876-16.695-8.685-21.988l.462-.68c8.122 5.5 9.999 15.368 9.046 22.768z" opacity=".5"/>
            <path fill="#F57901" d="M33.616 210.214h-.83c0-2.268.74-5.11 1.593-8.401 1.421-5.464 3.191-12.26 2.043-18.998l.817-.142c1.184 6.915-.592 13.806-2.055 19.347-.84 3.215-1.568 6.009-1.568 8.194z" opacity=".5"/>
            <path fill="#E89F81" d="M408.562 89.863c0 1.29-.87 3.031-1.735 4.482l3.824 2.403c2.96-4.41 4.387-3.422 5.21-8.49.823-5.067 0-8.317 0-8.317l-7.3 9.922z"/>
            <path fill="#FFF" d="M414.66 88.803l2.882-21.312c.024-.19-.035-.382-.162-.526-.126-.143-.309-.226-.5-.226h-10.982c-.603.012-1.106.463-1.184 1.06l-2.878 21.312c-.025.19.033.383.16.528.127.144.311.226.503.224h11.006c.597-.012 1.092-.466 1.154-1.06z"/>
            <path fill="#FFD839" d="M403.097 87.744L405.643 68.876 416.228 68.847 413.683 87.708 413.647 87.744z"/>
            <path fill="#E89F81" d="M409.663 82.273c-.456 1.143-1.018 2.499-1.362 3.618-.343 1.119.225 2.29.26 3.972l2.144 1.687 3.22-1.255 1.315-1.314.592-9.04c-1.327 0-3.215 8.087-4.204 7.696-.988-.39.148-4.505-.237-5.754-.175-.58-.659-1.014-1.255-1.125-.104-.023-.213.008-.291.08-.078.074-.115.181-.1.287.073.383.045.78-.082 1.148z"/>
            <circle cx="411.137" cy="67.781" r="1" fill="#FFD839"/>
            <path fill="#FFC418" d="M42.247 47.534H164.71699999999998V258.16700000000003H42.247z"/>
            <path fill="#FFCE3E" d="M74.423 47.534H164.723V258.16700000000003H74.423z"/>
            <path fill="#FFB009" d="M34.918 47.534H172.046V55.632999999999996H34.918z"/>
            <path fill="#FFA300" d="M20.497 228.17v8.329h1.184c10.43 0 18.885-3.138 18.885-7.01-.007-.467-.127-.926-.35-1.337l-19.72.017z"/>
            <path fill="#FFB009" d="M106.635 224.943H132.5V258.16700000000003H106.635z"/>
            <path fill="#FFD839" d="M119.156 224.943H120.156V258.16700000000003H119.156z"/>
            <path fill="#FFBC2E" d="M70.676 79.396H99.187V90.188H70.676zM108.174 79.396H136.685V90.188H108.174zM145.666 79.396H174.177V90.188H145.666zM70.676 95.89H99.187V106.682H70.676zM108.174 95.89H136.685V106.682H108.174zM145.666 95.89H174.177V106.682H145.666zM70.676 112.377H99.187V123.169H70.676zM108.174 112.377H136.685V123.169H108.174zM145.666 112.377H174.177V123.169H145.666zM70.676 128.865H99.187V139.657H70.676zM108.174 128.865H136.685V139.657H108.174zM145.666 128.865H174.177V139.657H145.666zM70.676 145.352H99.187V156.144H70.676zM108.174 145.352H136.685V156.144H108.174zM145.666 145.352H174.177V156.144H145.666zM70.676 161.84H99.187V172.632H70.676zM108.174 161.84H136.685V172.632H108.174zM145.666 161.84H174.177V172.632H145.666zM70.676 178.334H99.187V189.126H70.676zM108.174 178.334H136.685V189.126H108.174zM145.666 178.334H174.177V189.126H145.666zM70.676 194.821H99.187V205.613H70.676zM108.174 194.821H136.685V205.613H108.174zM145.666 194.821H174.177V205.613H145.666z"/>
            <path fill="#FCB34A" d="M652.625 84.428L622.018 84.428 624.013 82.433 636.878 69.569z"/>
            <path fill="#FFC418" d="M610.326 84.434H664.312V258.166H610.326z"/>
            <path fill="#FFCE3E" d="M503.752 84.428H610.332V258.166H503.752z"/>
            <path fill="#FFF" d="M576.504 213.061c-11.012 0-20.79 7.047-24.272 17.494h16.398c0-5.085 2.629-15.694 7.874-17.494z" opacity=".5"/>
            <path fill="#FFB009" d="M576.504 213.061c-5.245 1.776-7.874 12.432-7.874 17.494h32.153c-3.489-10.446-13.266-17.49-24.279-17.494z"/>
            <path fill="#F57901" d="M576.504 213.061c-11.012 0-20.79 7.047-24.272 17.494h9.567c1.308-10.336 9.46-17.494 14.705-17.494zM576.09 230.555H577.09V258.16700000000003H576.09z" opacity=".5"/>
            <path fill="#FFF" d="M631.514 213.061c-11.012 0-20.79 7.047-24.273 17.494h16.4c0-5.085 2.628-15.694 7.873-17.494z" opacity=".5"/>
            <path fill="#FFB009" d="M631.514 213.061c-5.245 1.776-7.874 12.432-7.874 17.494h32.153c-3.486-10.448-13.265-17.494-24.279-17.494z"/>
            <path fill="#F57901" d="M631.514 213.061c-11.012 0-20.79 7.047-24.273 17.494h9.567c1.315-10.336 9.467-17.494 14.706-17.494zM631.1 230.555H632.1V258.16700000000003H631.1z" opacity=".5"/>
            <path fill="#FFF" d="M521.494 213.061c-11.012 0-20.79 7.047-24.272 17.494h16.422c0-5.085 2.599-15.694 7.85-17.494z" opacity=".5"/>
            <path fill="#FFB009" d="M521.494 213.061c-5.251 1.776-7.874 12.432-7.874 17.494h32.147c-3.483-10.447-13.26-17.494-24.273-17.494z"/>
            <path fill="#F57901" d="M521.494 213.061c-11.012 0-20.79 7.047-24.272 17.494h9.567c1.308-10.336 9.46-17.494 14.705-17.494zM521.08 230.555H522.08V258.16700000000003H521.08z" opacity=".5"/>
            <path fill="#FFB009" d="M618.502 96.044H671.209V108.399H618.502z"/>
            <path fill="#FFA300" d="M593.075 96.044H600.7890000000001V108.399H593.075zM581.678 96.044H589.392V108.399H581.678zM570.282 96.044H577.9960000000001V108.399H570.282zM558.88 96.044H566.594V108.399H558.88zM547.484 96.044H555.1980000000001V108.399H547.484zM536.087 96.044H543.801V108.399H536.087zM524.691 96.044H532.4050000000001V108.399H524.691z"/>
            <path fill="#FFBC2E" d="M513.289 96.044H532.399V108.399H513.289zM536.087 96.044H555.197V108.399H536.087zM558.88 96.044H577.99V108.399H558.88zM581.678 96.044H600.788V108.399H581.678zM513.289 115.29H532.399V127.64500000000001H513.289zM536.087 115.29H555.197V127.64500000000001H536.087zM558.88 115.29H577.99V127.64500000000001H558.88zM581.678 115.29H600.788V127.64500000000001H581.678zM513.289 134.536H532.399V146.891H513.289zM536.087 134.536H555.197V146.891H536.087zM558.88 134.536H577.99V146.891H558.88zM581.678 134.536H600.788V146.891H581.678zM513.289 153.789H532.399V166.14399999999998H513.289zM536.087 153.789H555.197V166.14399999999998H536.087zM558.88 153.789H577.99V166.14399999999998H558.88zM581.678 153.789H600.788V166.14399999999998H581.678zM513.289 173.035H532.399V185.39H513.289zM536.087 173.035H555.197V185.39H536.087zM558.88 173.035H577.99V185.39H558.88zM581.678 173.035H600.788V185.39H581.678zM513.289 192.281H532.399V204.636H513.289zM536.087 192.281H555.197V204.636H536.087zM558.88 192.281H577.99V204.636H558.88zM581.678 192.281H600.788V204.636H581.678z"/>
            <path fill="#FFB009" d="M618.502 115.29H671.209V127.64500000000001H618.502zM618.502 134.536H671.209V146.891H618.502zM618.502 153.789H671.209V166.14399999999998H618.502zM618.502 173.035H671.209V185.39H618.502zM618.502 192.281H671.209V204.636H618.502zM636.878 69.569L529.078 69.569 516.213 82.433 514.218 84.428 652.625 84.428z"/>
            <path fill="#FBC836" d="M544.849 63.791H618.5010000000001V69.575H544.849z"/>
            <path fill="#FFB009" d="M542.007 60.949L544.855 63.791 618.502 63.791 621.343 60.949z"/>
            <path fill="#F57901" d="M18.85 230.3l-.787-.26c-5.328 16.375-3.049 23.491.823 28.127h1.095c-3.984-4.446-6.547-11.249-1.13-27.866z" opacity=".5"/>
        </g>
    </g>
</svg>
