<svg xmlns="http://www.w3.org/2000/svg" width="121" height="49" viewBox="0 0 121 49">
    <g fill="none" fill-rule="evenodd">
        <path fill="#2c353b" d="M49.585 18.13c.636 0 1.17.152 1.603.455.432.304.788.714 1.068 1.232a8.84 8.84 0 0 1 .706 1.782c.19.67.35 1.383.477 2.141.101.682.267 1.023.496 1.023a58.7 58.7 0 0 0 .782-1.97c.267-.708.579-1.365.935-1.971a5.027 5.027 0 0 1 1.316-1.498c.521-.391 1.15-.587 1.888-.587 1.578 0 2.887.29 3.93.872 1.043.58 1.876 1.339 2.5 2.274a9.153 9.153 0 0 1 1.316 3.108c.254 1.137.381 2.261.381 3.373 0 1.137-.356 2.135-1.068 2.994A9.003 9.003 0 0 1 63.3 33.5c-1.03.568-2.104.998-3.224 1.289-1.119.29-2.085.435-2.9.435-.94 0-1.792-.113-2.556-.34l-.381.416.458 6.747c-.204.202-.47.303-.802.303-.025 0-.197-.05-.515-.151a5.157 5.157 0 0 1-.896-.38c-.382 0-.7-.138-.954-.416a3.293 3.293 0 0 1-.61-.967 5.14 5.14 0 0 1-.325-1.1 5.354 5.354 0 0 1-.095-.852c0-.202.013-.518.038-.948l.114-1.933c0-.58-.05-1.06-.152-1.44-.33-.227-.642-.575-.935-1.042-.292-.468-.439-.903-.439-1.308 0-.05.02-.202.057-.455.039-.252.147-.404.325-.454.05 0 .172.113.362.34.191.228.325.342.4.342l.23-.076v-.758c0-.328-.013-.865-.038-1.61-.026-.746-.064-1.612-.115-2.597-.05-.986-.133-2.06-.248-3.222a60.71 60.71 0 0 0-.439-3.449.854.854 0 0 0-.057-.303c-.038-.101-.146-.265-.324-.493a4.513 4.513 0 0 1-.286-.322c-.115-.14-.172-.272-.172-.398 0-.076.038-.152.115-.227zm19.65-.644c.177 0 .394.044.648.133.254.088.515.19.782.303.267.114.528.234.782.36.255.126.483.228.687.303.127.101.242.24.343.417.102.177.204.417.305.72.051.531.102 1.074.153 1.63.051.556.102 1.156.153 1.8.05.645.089 1.365.114 2.161.026.796.038 1.712.038 2.748.077.202.255.303.535.303.508 0 1.036-.177 1.583-.53a9.203 9.203 0 0 0 1.621-1.365 17.677 17.677 0 0 0 1.546-1.857 27.43 27.43 0 0 0 1.335-2.009 17.5 17.5 0 0 0 .973-1.838c.254-.569.42-1.005.496-1.308.432-.404.865-.606 1.297-.606.153 0 .4.056.744.17.344.114.687.253 1.03.417.344.164.636.329.878.493.241.164.362.297.362.398 0 .1-.05.36-.152.777-.102.417-.344.878-.725 1.383-.127.253-.21.588-.248 1.005-.038.417-.058 1.067-.058 1.952 0 1.794.268 4.826.802 9.096.025.303.114.575.267.815.152.24.229.461.229.663 0 .076-.051.133-.153.171-.102.038-.222.07-.362.095a5.082 5.082 0 0 1-.63.076c-.33 0-.61-.038-.84-.114-1.296 0-2.187-.272-2.67-.815a2.74 2.74 0 0 1-.725-1.876 55.044 55.044 0 0 0 .057-1.289c.013-.354.026-.726.038-1.118.013-.392.02-.74.02-1.042a.793.793 0 0 0-.034-.236l-.043-.105-.152-.304-.458-.075a60.654 60.654 0 0 0-1.526 1.8 16.478 16.478 0 0 1-1.47 1.592 8.431 8.431 0 0 1-1.564 1.175 4.164 4.164 0 0 1-1.774.55 7.633 7.633 0 0 1-.915-.455 7.743 7.743 0 0 1-1.069-.74 7.935 7.935 0 0 1-.992-.966 3.663 3.663 0 0 1-.686-1.175 103.353 103.353 0 0 0-.305-7.163 56.871 56.871 0 0 0-.401-3.696c-.166-1.15-.363-2.04-.592-2.672a2.19 2.19 0 0 1 .725-.152zm-29.34-7.012c.508 0 .978.209 1.41.626.433.417.853.827 1.26 1.231.102.102.197.323.286.664.09.34.16.745.21 1.213.05.467.095.96.133 1.478.039.518.058 1.004.058 1.46 0 .454.063.833.19 1.136.128.303.407.455.84.455.127 0 .33-.044.61-.133.28-.088.725-.132 1.336-.132.254 0 .502.075.744.227.241.152.362.43.362.834 0 .809-.153 1.503-.458 2.085-.305.58-.648.871-1.03.871a4.96 4.96 0 0 1-.61-.038 7.193 7.193 0 0 0-.84-.037c-.44 0-.71.177-.813.532l-.026.112.381 5.23c.026.329.191.916.496 1.763.306.846.954 1.838 1.946 2.975 0 .076-.05.183-.152.322-.102.14-.217.29-.344.455a4.484 4.484 0 0 0-.343.512 1.121 1.121 0 0 0-.143.376l-.01.117.458.72c-.407 0-.897-.045-1.469-.133a8.653 8.653 0 0 1-1.755-.474 6.823 6.823 0 0 1-1.679-.928 4.525 4.525 0 0 1-1.13-1.244l-.148-.253-.381-9.93c-.156-.222-.39-.346-.701-.374l-.139-.006-.19.076h-.382c-.127 0-.242.07-.343.208-.102.14-.153.247-.153.322 0 .076.025.19.076.342.051.151.178.303.382.454.025.051.044.095.057.133.013.038.032.107.057.209 0 .05-.089.075-.267.075-.381 0-.693-.1-.934-.303a2.105 2.105 0 0 1-.573-.777 4.321 4.321 0 0 1-.305-1.08 8.041 8.041 0 0 1-.095-1.25c0-.506.146-.923.438-1.252.293-.328.833-.492 1.622-.492.483 0 .84-.12 1.068-.36.23-.24.344-.74.344-1.497 0-.455-.026-.917-.077-1.384-.05-.467-.108-.948-.171-1.44a42.734 42.734 0 0 1-.172-1.573 19.36 19.36 0 0 1-.073-1.456l-.003-.401v-.038a1.51 1.51 0 0 1 .438-.17c.166-.039.4-.058.706-.058zm56.543 8.073c1.348 0 2.473.234 3.376.702.903.467 1.622 1.333 2.156 2.596-.89-.38-1.742-.569-2.556-.569-.33 0-.833.026-1.507.076-.674.05-1.387.17-2.137.36-.75.19-1.482.48-2.194.872a4.283 4.283 0 0 0-1.678 1.649c.33.202.73.373 1.201.511.47.14.96.266 1.47.38.508.113 1.01.22 1.506.322.496.1.96.202 1.393.303.61.151 1.208.341 1.793.568a7.574 7.574 0 0 1 1.564.815 3.76 3.76 0 0 1 1.107 1.175c.28.468.42 1.03.42 1.687 0 .985-.21 1.8-.63 2.445a4.67 4.67 0 0 1-1.698 1.554c-.712.391-1.558.663-2.537.815-.98.151-2.016.227-3.11.227-.305 0-.852-.05-1.64-.152a13.724 13.724 0 0 1-2.385-.53 9.196 9.196 0 0 1-2.136-.967c-.623-.391-.935-.878-.935-1.459 0-.43.14-.758.42-.985.28-.228.693-.417 1.24-.569a21.139 21.139 0 0 1 2.04-.436c.699-.119 1.49-.27 2.374-.455l.45-.094.153.075h.152c0 .05-.063.095-.19.133a1.389 1.389 0 0 1-.238.05l-.106.007-.152.076h-.077c-.457.05-.756.132-.896.246-.117.095-.3.185-.549.271l-.157.051h-.19l-.23.076c-.56.202-.992.354-1.297.455-.305.1-.547.328-.725.682.305.101.687.152 1.145.152.33 0 .82-.064 1.469-.19a19.124 19.124 0 0 0 2.06-.53 23.33 23.33 0 0 0 2.156-.796 8.516 8.516 0 0 0 1.55-.836l.205-.15-.153-.53c-.738-.33-1.615-.55-2.633-.664a23.709 23.709 0 0 1-2.937-.512c-.942-.227-1.755-.612-2.442-1.156-.687-.543-1.081-1.408-1.183-2.596.509-.126.763-.682.763-1.668 0-.606.229-1.124.687-1.554.458-.43 1.036-.79 1.736-1.08.7-.29 1.469-.505 2.308-.644.84-.14 1.64-.209 2.404-.209zm8.546-8.11c.585.075 1.094.22 1.526.435.433.215.795.48 1.088.796.292.316.508.663.648 1.043.112.303.18.614.202.933l.008.241v11.22c.077.075.153.113.23.113.075 0 .177.013.304.038.356 0 .725-.088 1.107-.265a6.224 6.224 0 0 0 1.125-.682 8.827 8.827 0 0 0 1.03-.91c.318-.329.592-.632.82-.91.077-.1.204-.259.382-.473.178-.215.267-.386.267-.512 0-.076-.05-.114-.152-.114-.051 0-.14.044-.267.133-.127.088-.267.19-.42.303a4.767 4.767 0 0 1-.458.303c-.122.071-.211.113-.268.128l-.037.005-.038-.076c.025-.278.235-.638.63-1.08.394-.442.864-.872 1.411-1.289a11.619 11.619 0 0 1 1.698-1.08c.585-.303 1.094-.455 1.526-.455.305 0 .604.057.897.17.292.114.572.266.839.455.267.19.502.392.706.607.203.215.369.423.496.625-.153.53-.452 1.156-.897 1.877a13.924 13.924 0 0 1-1.698 2.179 15.858 15.858 0 0 1-2.422 2.085 14.132 14.132 0 0 1-2.57 1.438l-.464.191v.417a13.67 13.67 0 0 0 3.377 1.63c1.234.404 2.423.695 3.567.872a.994.994 0 0 1 .725-.303c.077 0 .14.1.191.303-.05.05-.146.246-.286.587-.14.341-.318.701-.534 1.08a6.196 6.196 0 0 1-.744 1.043c-.28.316-.598.474-.954.474-.865 0-2.029-.335-3.491-1.005-1.463-.67-3.186-1.661-5.17-2.975-.305 0-.56.196-.763.587-.204.392-.369.891-.496 1.497 0 .228-.076.493-.229.796-.153.304-.35.588-.591.853a3.429 3.429 0 0 1-.82.664 1.876 1.876 0 0 1-.955.265c-.076 0-.133-.076-.171-.228a1.61 1.61 0 0 1-.057-.379c.025-.1.044-.233.057-.398.013-.164.044-.46.095-.89l-.012-.037-.037-.109-.027-.082v-.53c0-.101.006-.221.019-.36a13.218 13.218 0 0 0 .057-1.308c0-.278-.057-.518-.171-.72a3.513 3.513 0 0 0-.382-.55c-.14-.164-.267-.322-.382-.474a.856.856 0 0 1-.171-.53c0-.127.05-.265.152-.417.102-.152.217-.303.344-.455.127-.152.248-.297.362-.436.086-.104.154-.205.204-.302l.044-.096v-2.805c0-1.212-.019-2.356-.057-3.43-.038-1.074-.07-2.078-.095-3.013a24.264 24.264 0 0 0-.267-3.089 51.839 51.839 0 0 0-.573-3.089c.077-.354.407-.53.992-.53zM58.246 22.413c-.687 0-1.29.17-1.812.511a4.323 4.323 0 0 0-1.297 1.327 6.392 6.392 0 0 0-.783 1.895 9.205 9.205 0 0 0-.267 2.217c0 .05.007.12.02.209.012.088.025.278.038.568.012.29.038.708.076 1.25.038.544.095 1.309.171 2.294h.382c.56 0 1.285-.202 2.175-.606.89-.405 1.749-.935 2.575-1.592a10.906 10.906 0 0 0 2.137-2.255c.598-.847.896-1.725.896-2.635 0-1.137-.343-1.952-1.03-2.444-.687-.493-1.78-.74-3.281-.74z"/>
        <path fill="#fff" d="M17.987 34.736l-.01.06-1.01 4.383s2.39-4.615 1.759-.56c-.632 4.055-6.72 11.678-7.056 9.878-.238-1.275-.031-1.99.168-2.28l.018-.026-.03.02c-.67.421-2.524 1.427-1.167-1.315l.097-.193c1.82-3.523 7.374-11.094 7.231-9.967zm16.756 11.64c-1.893-2.671-5.355-9.675-4.448-8.902l2.794 2.378s-2.44-3.453.259-1.47c2.698 1.984 5.919 9.215 4.488 8.775-1.04-.32-1.476-.751-1.598-1.001l-.002-.003.004.038c.052.642.073 2.314-1.38.349zm-22.87-.206l-.017.02.013-.006c.111-.071.18-.12.18-.12-.041-.013-.106.02-.176.106zm24.344-.203c-.022.023-.025.074.002.144l.017.042v-.01c-.01-.108-.019-.176-.019-.176zm-8.716-28.852c-.83.55-1.647 1.08-2.45 1.588a14.829 14.829 0 0 0-2.16 1.65 7.262 7.262 0 0 0-1.536 2.022c-.387.756-.58 1.643-.58 2.66 0 .468.04 1.073.124 1.815.083.743.228 1.472.436 2.187.207.715.498 1.334.872 1.856.373.522.837.784 1.39.784 1.413 0 2.561-.255 3.447-.763a5.843 5.843 0 0 0 2.097-2.001c.513-.825.872-1.76 1.08-2.805.208-1.045.325-2.104.353-3.177a4.426 4.426 0 0 0-1.827-.37c-.581 0-1.218.095-1.91.288-.692.192-1.523.481-2.492.866-.166 0-.332-.075-.498-.227-.166-.15-.25-.31-.25-.474 0-.715.174-1.348.52-1.898.346-.55.789-1.01 1.329-1.382a6.132 6.132 0 0 1 1.847-.845 7.57 7.57 0 0 1 2.035-.289c1.19 0 2.153.234 2.886.701a5.049 5.049 0 0 1 1.724 1.815c.415.743.692 1.595.83 2.558.138.963.208 1.939.208 2.929 0 1.21-.298 2.358-.893 3.444a10.146 10.146 0 0 1-2.346 2.867 11.673 11.673 0 0 1-3.26 1.96c-1.204.481-2.402.722-3.592.722-1.163 0-2.228-.213-3.197-.64a7.214 7.214 0 0 1-2.492-1.794c-.692-.77-1.225-1.692-1.599-2.764-.332-.953-.516-1.994-.553-3.12l-.007-.428v-.04c0-.99.242-2.057.727-3.198a10.566 10.566 0 0 1 2.097-3.156c.913-.962 2.013-1.76 3.3-2.392 1.288-.633 2.734-.95 4.34-.95zm-12.47 9.226l-.053.03-4.043 2.021s5.103-1.113 1.555.99C8.943 31.482-.85 31.682.332 30.278c.85-1.012 1.545-1.302 1.892-1.327l.013-.001-.034-.01c-.753-.245-2.715-1.023.277-1.733l.212-.048c3.892-.853 13.304-1.429 12.339-.82zM2.279 28.95h-.042l.015.005c.127.04.208.061.208.061-.016-.037-.078-.065-.181-.067zm8.934-21.204c3.095 2.495 9.406 9.456 8.325 9.085l-.056-.023-4.11-1.886s4.054 3.276.19 1.826c-3.865-1.45-10.117-8.94-8.275-8.896 1.305.032 1.966.38 2.211.634l.021.024-.013-.036c-.283-.754-.912-2.84 1.707-.728zM31.555.34c.698 1.096.774 1.836.698 2.179l-.009.03.023-.03c.463-.638 1.808-2.257 1.575.79l-.019.216c-.37 3.942-2.692 13.022-2.981 11.923l-.012-.06-.704-4.442s-.491 5.168-1.423 1.17S30.569-1.207 31.555.34zM9.519 8.511l.005.012c.048.123.081.2.081.2.021-.037.002-.107-.068-.193l-.018-.02zm22.725-5.963l-.008.012c-.076.107-.122.178-.122.178.043-.004.09-.059.124-.164l.006-.026z"/>
    </g>
</svg>
